# xmcd
#
# Track frame offsets:
#	150
#	9540
#	19184
#	29427
#	39817
#	48742
#	58796
#	68418
#	78408
#	87382
#	97957
#	109264
#
# Disc length: 1581 seconds
#
# Revision: 1
# Processed by: cddbd v1.5.2PL0 Copyright (c) Steve Scherf et al.
# Submitted via: audiograbber 1.83.01
#
DISCID=90062b0c
DTITLE=George Jones and The Jones Boys Orchestra - Instrumental Selections of Geo
DTITLE=rge Jones' Greatest Hits
DYEAR=2015
DGENRE=Country
TTITLE0=You Gotta Be My Baby
TTITLE1=Window Up Above
TTITLE2=Your Heart Turned Left
TTITLE3=Yearning
TTITLE4=Rollin' In My Sweet Baby's Arms
TTITLE5=She's Lonesome Again
TTITLE6=White Lightning
TTITLE7=Sometimes You Just Can't Win
TTITLE8=Dixieland For Me
TTITLE9=Don't Stop The Music
TTITLE10=The Race Is On
TTITLE11=We Must Have Been Out Of Our Minds
EXTD=
EXTT0=
EXTT1=
EXTT2=
EXTT3=
EXTT4=
EXTT5=
EXTT6=
EXTT7=
EXTT8=
EXTT9=
EXTT10=
EXTT11=
PLAYORDER=
